<svg width="200" height="200" viewBox="0 0 200 200" fill="none" xmlns="http://www.w3.org/2000/svg">
<path d="M66.6667 83.3334H133.333M66.6667 150H133.333M66.6667 116.667H100M33.3333 178.333V21.6667C33.3333 20.3406 33.8601 19.0688 34.7978 18.1312C35.7355 17.1935 37.0073 16.6667 38.3333 16.6667H135.433C136.759 16.6679 138.03 17.1954 138.967 18.1334L165.2 44.3667C165.666 44.8325 166.036 45.386 166.288 45.9952C166.54 46.6045 166.668 47.2575 166.667 47.9167V178.333C166.667 178.99 166.537 179.64 166.286 180.247C166.035 180.853 165.667 181.405 165.202 181.869C164.738 182.333 164.187 182.701 163.58 182.953C162.973 183.204 162.323 183.333 161.667 183.333H38.3333C37.6767 183.333 37.0266 183.204 36.4199 182.953C35.8133 182.701 35.2621 182.333 34.7978 181.869C34.3335 181.405 33.9652 180.853 33.7139 180.247C33.4627 179.64 33.3333 178.99 33.3333 178.333Z" stroke="black" stroke-width="12.5" stroke-linecap="round" stroke-linejoin="round"/>
<path d="M133.333 16.6667V45C133.333 46.3261 133.86 47.5979 134.798 48.5356C135.735 49.4732 137.007 50 138.333 50H166.667" stroke="black" stroke-width="12.5" stroke-linecap="round" stroke-linejoin="round"/>
</svg>
